<svg width="38" height="38" viewBox="0 0 38 38" fill="none" xmlns="http://www.w3.org/2000/svg">
<path d="M33.9244 26.5386C34.3133 26.6284 34.7013 26.3859 34.7911 25.997C34.8808 25.6081 34.6384 25.2201 34.2495 25.1304L32.1516 24.646C31.7627 24.5562 31.3747 24.7987 31.2849 25.1876C31.1951 25.5764 31.4376 25.9644 31.8264 26.0542L33.9244 26.5386Z" fill="#EA1D2C"/>
<path d="M14.1094 38C13.8382 38.0003 13.5696 37.9471 13.319 37.8433C13.0685 37.7396 12.8409 37.5873 12.6493 37.3953L9.3473 34.0932C9.56249 33.9494 9.76303 33.7847 9.94605 33.6017C10.6819 32.8659 11.0952 31.8679 11.0952 30.8273C11.0952 29.7867 10.6818 28.7887 9.946 28.0529C9.21017 27.317 8.21217 26.9037 7.17156 26.9037C6.13095 26.9037 5.13297 27.3171 4.39715 28.0529C4.21416 28.2359 4.04958 28.4365 3.90576 28.6517L0.604868 25.3508C0.412965 25.1591 0.260723 24.9316 0.15685 24.6811C0.0529773 24.4306 -0.000488281 24.162 -0.000488281 23.8908C-0.000488281 23.6196 0.0529773 23.3511 0.15685 23.1006C0.260723 22.8501 0.412965 22.6225 0.604868 22.4309L22.431 0.604676C22.6226 0.412776 22.8502 0.260536 23.1007 0.156665C23.3512 0.0527935 23.6197 -0.000671387 23.8909 -0.000671387C24.1621 -0.000671387 24.4306 0.0527935 24.6811 0.156665C24.9316 0.260536 25.1591 0.412776 25.3508 0.604676L28.6514 3.90526C28.4363 4.04908 28.2357 4.21366 28.0527 4.39665C27.6879 4.76089 27.3985 5.19344 27.2009 5.66959C27.0034 6.14574 26.9016 6.65615 26.9014 7.17165C26.9012 7.68715 27.0026 8.19763 27.1998 8.67393C27.397 9.15023 27.6861 9.583 28.0506 9.94751C28.4151 10.312 28.8479 10.6011 29.3242 10.7983C29.8005 10.9955 30.311 11.0969 30.8265 11.0967C31.342 11.0965 31.8524 10.9947 32.3285 10.7972C32.8047 10.5997 33.2372 10.3102 33.6015 9.94545C33.7845 9.76244 33.949 9.56189 34.0928 9.34669L37.3949 12.6488C37.5868 12.8404 37.7391 13.068 37.843 13.3185C37.9469 13.569 38.0004 13.8375 38.0004 14.1087C38.0004 14.3799 37.9469 14.6485 37.843 14.899C37.7391 15.1495 37.5868 15.3771 37.3949 15.5687L15.5694 37.3952C15.3779 37.5872 15.1503 37.7395 14.8997 37.8433C14.6492 37.9471 14.3806 38.0003 14.1094 38ZM28.2881 17.7925C28.1758 17.7926 28.066 17.8259 27.9727 17.8882C27.8793 17.9506 27.8066 18.0393 27.7636 18.143C27.7206 18.2467 27.7094 18.3609 27.7313 18.471C27.7532 18.5811 27.8072 18.6823 27.8866 18.7617L29.9306 20.8057C29.9832 20.859 30.0458 20.9014 30.1149 20.9304C30.1839 20.9594 30.258 20.9745 30.3329 20.9747C30.4077 20.975 30.4819 20.9604 30.5512 20.9318C30.6204 20.9033 30.6833 20.8614 30.7362 20.8084C30.7892 20.7555 30.8312 20.6926 30.8597 20.6233C30.8882 20.5541 30.9028 20.4799 30.9025 20.405C30.9023 20.3301 30.8872 20.256 30.8582 20.187C30.8292 20.118 30.7869 20.0554 30.7336 20.0028L28.6895 17.9587C28.6369 17.9059 28.5743 17.864 28.5054 17.8354C28.4365 17.8069 28.3626 17.7923 28.2881 17.7925ZM24.7112 14.2157C24.5989 14.2157 24.4892 14.249 24.3958 14.3114C24.3024 14.3738 24.2296 14.4625 24.1867 14.5662C24.1437 14.6699 24.1325 14.7841 24.1544 14.8942C24.1763 15.0044 24.2303 15.1056 24.3097 15.185L26.3538 17.229C26.4602 17.3355 26.6047 17.3953 26.7553 17.3953C26.9059 17.3953 27.0503 17.3355 27.1568 17.229C27.2633 17.1226 27.3231 16.9781 27.3231 16.8275C27.3231 16.6769 27.2633 16.5325 27.1568 16.426L25.1128 14.382C25.0602 14.3291 24.9976 14.2872 24.9287 14.2586C24.8597 14.2301 24.7858 14.2155 24.7112 14.2157ZM21.2073 10.7119C21.095 10.7119 20.9852 10.7452 20.8918 10.8075C20.7985 10.8699 20.7257 10.9586 20.6827 11.0624C20.6398 11.1661 20.6285 11.2803 20.6504 11.3904C20.6723 11.5005 20.7264 11.6017 20.8058 11.6811L22.8498 13.7251C22.9025 13.7779 22.9651 13.8197 23.034 13.8482C23.1029 13.8768 23.1768 13.8914 23.2513 13.8914C23.3259 13.8914 23.3998 13.8768 23.4686 13.8482C23.5375 13.8197 23.6001 13.7779 23.6529 13.7251C23.7056 13.6724 23.7474 13.6098 23.776 13.5409C23.8045 13.472 23.8192 13.3982 23.8192 13.3236C23.8192 13.249 23.8045 13.1752 23.776 13.1063C23.7474 13.0374 23.7056 12.9748 23.6529 12.9221L21.6089 10.8781C21.5562 10.8252 21.4936 10.7833 21.4247 10.7547C21.3558 10.7262 21.2819 10.7116 21.2073 10.7119ZM17.6306 7.13491C17.5184 7.13492 17.4086 7.16822 17.3152 7.23061C17.2218 7.293 17.1491 7.38167 17.1061 7.48542C17.0631 7.58917 17.0519 7.70333 17.0738 7.81346C17.0957 7.9236 17.1498 8.02477 17.2292 8.10417L19.2732 10.1482C19.3799 10.2535 19.524 10.3123 19.6739 10.3118C19.8238 10.3113 19.9674 10.2515 20.0735 10.1455C20.1795 10.0395 20.2393 9.89586 20.2398 9.74593C20.2403 9.59601 20.1814 9.45197 20.0761 9.34525L18.0321 7.30122C17.9795 7.24832 17.917 7.20639 17.848 7.17784C17.7791 7.14929 17.7052 7.1347 17.6306 7.13491Z" fill="#FFAD42"/>
<path d="M12.0866 18.2769C12.0826 18.5467 12.1328 18.8145 12.2342 19.0645C12.3356 19.3145 12.4861 19.5417 12.6769 19.7324C12.8677 19.9232 13.0948 20.0738 13.3448 20.1751C13.5948 20.2765 13.8627 20.3267 14.1324 20.3227C14.4026 20.3257 14.6708 20.275 14.9212 20.1734C15.1716 20.0719 15.3993 19.9215 15.5911 19.7312C15.7829 19.5408 15.935 19.3142 16.0384 19.0645C16.1418 18.8149 16.1946 18.5472 16.1936 18.2769C16.1936 17.7303 15.9764 17.206 15.5899 16.8195C15.2033 16.433 14.6791 16.2158 14.1324 16.2158C13.8622 16.2148 13.5945 16.2675 13.3448 16.371C13.0951 16.4744 12.8685 16.6264 12.6782 16.8182C12.4878 17.01 12.3375 17.2377 12.2359 17.4882C12.1344 17.7386 12.0836 18.0067 12.0866 18.2769ZM13.3326 18.2769C13.3302 18.1705 13.3492 18.0647 13.3883 17.9657C13.4275 17.8667 13.4861 17.7766 13.5606 17.7006C13.6351 17.6246 13.7241 17.5642 13.8223 17.5232C13.9205 17.4821 14.026 17.4611 14.1324 17.4614C14.3483 17.4627 14.555 17.5491 14.7076 17.7017C14.8603 17.8544 14.9466 18.061 14.948 18.2769C14.9483 18.3834 14.9273 18.4888 14.8862 18.587C14.8451 18.6852 14.7848 18.7742 14.7088 18.8488C14.6328 18.9233 14.5427 18.9819 14.4437 19.021C14.3447 19.0602 14.2389 19.0792 14.1324 19.0768C14.0265 19.0801 13.921 19.0617 13.8224 19.0227C13.7239 18.9836 13.6344 18.9249 13.5594 18.8499C13.4845 18.775 13.4257 18.6855 13.3867 18.5869C13.3477 18.4884 13.3292 18.3829 13.3326 18.2769ZM17.5318 24.4916C17.5278 24.7613 17.5781 25.0291 17.6795 25.279C17.7809 25.529 17.9314 25.7561 18.1222 25.9468C18.313 26.1375 18.5401 26.288 18.7901 26.3894C19.0401 26.4908 19.3079 26.5409 19.5776 26.5369C19.8478 26.5399 20.1159 26.4892 20.3663 26.3877C20.6168 26.2861 20.8445 26.1358 21.0363 25.9454C21.2281 25.755 21.3801 25.5284 21.4836 25.2788C21.587 25.0291 21.6397 24.7614 21.6387 24.4912C21.6387 23.9445 21.4215 23.4203 21.035 23.0337C20.6485 22.6472 20.1242 22.43 19.5776 22.43C19.3073 22.429 19.0396 22.4818 18.79 22.5852C18.5403 22.6886 18.3137 22.8406 18.1233 23.0324C17.933 23.2242 17.7826 23.452 17.6811 23.7024C17.5795 23.9528 17.5288 24.2209 17.5318 24.4912V24.4916ZM18.7777 24.4916C18.7754 24.3851 18.7943 24.2793 18.8335 24.1803C18.8726 24.0814 18.9312 23.9912 19.0057 23.9152C19.0803 23.8392 19.1693 23.7789 19.2675 23.7378C19.3657 23.6967 19.4711 23.6757 19.5776 23.676C19.7935 23.6774 20.0001 23.7637 20.1528 23.9164C20.3054 24.069 20.3918 24.2757 20.3931 24.4916C20.3934 24.598 20.3724 24.7035 20.3313 24.8017C20.2903 24.8999 20.23 24.9889 20.154 25.0634C20.078 25.1379 19.9878 25.1965 19.8888 25.2357C19.7898 25.2748 19.684 25.2938 19.5776 25.2914C19.4716 25.2948 19.3661 25.2763 19.2675 25.2373C19.1689 25.1982 19.0794 25.1394 19.0044 25.0644C18.9295 24.9894 18.8707 24.8999 18.8317 24.8013C18.7927 24.7027 18.7743 24.5971 18.7777 24.4912V24.4916ZM19.5776 17.0776C19.6322 16.9507 19.6355 16.8076 19.5867 16.6784C19.538 16.5492 19.4409 16.4439 19.3161 16.3849C19.0546 16.2464 18.7162 16.3229 18.5935 16.5695L14.1478 25.6449C14.1199 25.7084 14.105 25.7768 14.1038 25.8462C14.1027 25.9155 14.1154 25.9844 14.1411 26.0488C14.1669 26.1132 14.2053 26.1718 14.2539 26.2212C14.3026 26.2706 14.3607 26.3098 14.4247 26.3366C14.6862 26.475 15.0092 26.3985 15.1322 26.152L19.5776 17.0776Z" fill="white"/>
<path d="M30.956 29.8768C31.2479 30.149 31.7052 30.133 31.9774 29.8411C32.2496 29.5492 32.2336 29.092 31.9417 28.8198L29.8277 26.8484C29.5358 26.5763 29.0786 26.5922 28.8064 26.8841C28.5342 27.176 28.5502 27.6333 28.842 27.9054L30.956 29.8768Z" fill="#FFAD42"/>
<path d="M26.9105 32.5859C27.0272 32.9675 27.4312 33.1823 27.8128 33.0656C28.1945 32.949 28.4093 32.545 28.2926 32.1633L27.6631 30.1043C27.5464 29.7226 27.1424 29.5078 26.7608 29.6245C26.3791 29.7412 26.1643 30.1452 26.281 30.5268L26.9105 32.5859Z" fill="#EA1D2C"/>
</svg>
